<?xml version="1.0" encoding="UTF-8" standalone="no"?>
<!DOCTYPE svg PUBLIC "-//W3C//DTD SVG 1.1//EN"
 "http://www.w3.org/Graphics/SVG/1.1/DTD/svg11.dtd">
<!-- Generated by graphviz version 5.0.0 (20220707.1540)
 -->
<!-- Title: dependencies Pages: 1 -->
<svg width="714pt" height="174pt"
 viewBox="0.00 0.00 714.00 173.80" xmlns="http://www.w3.org/2000/svg" xmlns:xlink="http://www.w3.org/1999/xlink">
<g id="graph0" class="graph" transform="scale(1 1) rotate(0) translate(4 169.8)">
<title>dependencies</title>
<polygon fill="white" stroke="transparent" points="-4,4 -4,-169.8 710,-169.8 710,4 -4,4"/>
<text text-anchor="middle" x="353" y="-8.2" font-family="sans-serif" font-size="14.00">dependencies</text>
<g id="clust1" class="cluster">
<title>cluster_SubjectPeriodModule</title>
<polygon fill="none" stroke="black" stroke-dasharray="1,5" points="8,-32.8 8,-157.8 698,-157.8 698,-32.8 8,-32.8"/>
</g>
<g id="clust5" class="cluster">
<title>cluster_SubjectPeriodModule_imports</title>
<polygon fill="none" stroke="black" points="324,-40.8 324,-92.8 690,-92.8 690,-40.8 324,-40.8"/>
</g>
<g id="clust2" class="cluster">
<title>cluster_SubjectPeriodModule_declarations</title>
<polygon fill="none" stroke="black" points="16,-40.8 16,-92.8 316,-92.8 316,-40.8 16,-40.8"/>
</g>
<!-- AdminLayoutComponent -->
<g id="node1" class="node">
<title>AdminLayoutComponent</title>
<polygon fill="#ffffb3" stroke="black" points="307.88,-84.8 148.12,-84.8 148.12,-48.8 307.88,-48.8 307.88,-84.8"/>
<text text-anchor="middle" x="228" y="-62.6" font-family="Times,serif" font-size="14.00">AdminLayoutComponent</text>
</g>
<!-- SubjectPeriodModule -->
<g id="node3" class="node">
<title>SubjectPeriodModule</title>
<polygon fill="#8dd3c7" stroke="black" points="450.1,-149.8 447.1,-153.8 426.1,-153.8 423.1,-149.8 311.9,-149.8 311.9,-113.8 450.1,-113.8 450.1,-149.8"/>
<text text-anchor="middle" x="381" y="-127.6" font-family="Times,serif" font-size="14.00">SubjectPeriodModule</text>
</g>
<!-- AdminLayoutComponent&#45;&gt;SubjectPeriodModule -->
<g id="edge1" class="edge">
<title>AdminLayoutComponent&#45;&gt;SubjectPeriodModule</title>
<path fill="none" stroke="black" d="M308.02,-66.8C316.36,-66.8 321.87,-66.8 321.87,-66.8 321.87,-66.8 321.87,-103.69 321.87,-103.69"/>
<polygon fill="black" stroke="black" points="318.37,-103.69 321.87,-113.69 325.37,-103.69 318.37,-103.69"/>
</g>
<!-- AppComponent -->
<g id="node2" class="node">
<title>AppComponent</title>
<polygon fill="#ffffb3" stroke="black" points="129.94,-84.8 24.06,-84.8 24.06,-48.8 129.94,-48.8 129.94,-84.8"/>
<text text-anchor="middle" x="77" y="-62.6" font-family="Times,serif" font-size="14.00">AppComponent</text>
</g>
<!-- AppComponent&#45;&gt;SubjectPeriodModule -->
<g id="edge2" class="edge">
<title>AppComponent&#45;&gt;SubjectPeriodModule</title>
<path fill="none" stroke="black" d="M77,-84.91C77,-104.14 77,-131.8 77,-131.8 77,-131.8 301.64,-131.8 301.64,-131.8"/>
<polygon fill="black" stroke="black" points="301.64,-135.3 311.64,-131.8 301.64,-128.3 301.64,-135.3"/>
</g>
<!-- AppRoutingModule -->
<g id="node4" class="node">
<title>AppRoutingModule</title>
<polygon fill="#8dd3c7" stroke="black" points="682.28,-84.8 679.28,-88.8 658.28,-88.8 655.28,-84.8 553.72,-84.8 553.72,-48.8 682.28,-48.8 682.28,-84.8"/>
<text text-anchor="middle" x="618" y="-62.6" font-family="Times,serif" font-size="14.00">AppRoutingModule</text>
</g>
<!-- AppRoutingModule&#45;&gt;SubjectPeriodModule -->
<g id="edge3" class="edge">
<title>AppRoutingModule&#45;&gt;SubjectPeriodModule</title>
<path fill="none" stroke="black" d="M618,-84.91C618,-104.14 618,-131.8 618,-131.8 618,-131.8 460.19,-131.8 460.19,-131.8"/>
<polygon fill="black" stroke="black" points="460.19,-128.3 450.19,-131.8 460.19,-135.3 460.19,-128.3"/>
</g>
<!-- CoreModule -->
<g id="node5" class="node">
<title>CoreModule</title>
<polygon fill="#8dd3c7" stroke="black" points="535.27,-84.8 532.27,-88.8 511.27,-88.8 508.27,-84.8 448.73,-84.8 448.73,-48.8 535.27,-48.8 535.27,-84.8"/>
<text text-anchor="middle" x="492" y="-62.6" font-family="Times,serif" font-size="14.00">CoreModule</text>
</g>
<!-- CoreModule&#45;&gt;SubjectPeriodModule -->
<g id="edge4" class="edge">
<title>CoreModule&#45;&gt;SubjectPeriodModule</title>
<path fill="none" stroke="black" d="M448.58,-66.8C443.13,-66.8 439.42,-66.8 439.42,-66.8 439.42,-66.8 439.42,-103.69 439.42,-103.69"/>
<polygon fill="black" stroke="black" points="435.92,-103.69 439.42,-113.69 442.92,-103.69 435.92,-103.69"/>
</g>
<!-- SharedModule -->
<g id="node6" class="node">
<title>SharedModule</title>
<polygon fill="#8dd3c7" stroke="black" points="430.43,-84.8 427.43,-88.8 406.43,-88.8 403.43,-84.8 331.57,-84.8 331.57,-48.8 430.43,-48.8 430.43,-84.8"/>
<text text-anchor="middle" x="381" y="-62.6" font-family="Times,serif" font-size="14.00">SharedModule</text>
</g>
<!-- SharedModule&#45;&gt;SubjectPeriodModule -->
<g id="edge5" class="edge">
<title>SharedModule&#45;&gt;SubjectPeriodModule</title>
<path fill="none" stroke="black" d="M381,-84.91C381,-84.91 381,-103.79 381,-103.79"/>
<polygon fill="black" stroke="black" points="377.5,-103.79 381,-113.79 384.5,-103.79 377.5,-103.79"/>
</g>
</g>
</svg>
