<?xml version="1.0" encoding="UTF-8" standalone="no"?>
<!DOCTYPE svg PUBLIC "-//W3C//DTD SVG 1.1//EN"
 "http://www.w3.org/Graphics/SVG/1.1/DTD/svg11.dtd">
<!-- Generated by graphviz version 5.0.0 (20220707.1540)
 -->
<!-- Title: dependencies Pages: 1 -->
<svg width="714pt" height="174pt"
 viewBox="0.00 0.00 714.00 173.80" xmlns="http://www.w3.org/2000/svg" xmlns:xlink="http://www.w3.org/1999/xlink">
<g id="graph0" class="graph" transform="scale(1 1) rotate(0) translate(4 169.8)">
<title>dependencies</title>
<polygon fill="white" stroke="transparent" points="-4,4 -4,-169.8 710,-169.8 710,4 -4,4"/>
<text text-anchor="middle" x="353" y="-8.2" font-family="sans-serif" font-size="14.00">dependencies</text>
<g id="clust1" class="cluster">
<title>cluster_DetailModule</title>
<polygon fill="none" stroke="black" stroke-dasharray="1,5" points="8,-32.8 8,-157.8 698,-157.8 698,-32.8 8,-32.8"/>
</g>
<g id="clust2" class="cluster">
<title>cluster_DetailModule_declarations</title>
<polygon fill="none" stroke="black" points="390,-40.8 390,-92.8 690,-92.8 690,-40.8 390,-40.8"/>
</g>
<g id="clust5" class="cluster">
<title>cluster_DetailModule_imports</title>
<polygon fill="none" stroke="black" points="16,-40.8 16,-92.8 382,-92.8 382,-40.8 16,-40.8"/>
</g>
<!-- AdminLayoutComponent -->
<g id="node1" class="node">
<title>AdminLayoutComponent</title>
<polygon fill="#ffffb3" stroke="black" points="681.88,-84.8 522.12,-84.8 522.12,-48.8 681.88,-48.8 681.88,-84.8"/>
<text text-anchor="middle" x="602" y="-62.6" font-family="Times,serif" font-size="14.00">AdminLayoutComponent</text>
</g>
<!-- DetailModule -->
<g id="node3" class="node">
<title>DetailModule</title>
<polygon fill="#8dd3c7" stroke="black" points="356.76,-149.8 353.76,-153.8 332.76,-153.8 329.76,-149.8 263.24,-149.8 263.24,-113.8 356.76,-113.8 356.76,-149.8"/>
<text text-anchor="middle" x="310" y="-127.6" font-family="Times,serif" font-size="14.00">DetailModule</text>
</g>
<!-- AdminLayoutComponent&#45;&gt;DetailModule -->
<g id="edge1" class="edge">
<title>AdminLayoutComponent&#45;&gt;DetailModule</title>
<path fill="none" stroke="black" d="M602,-85.08C602,-106.12 602,-137.8 602,-137.8 602,-137.8 366.91,-137.8 366.91,-137.8"/>
<polygon fill="black" stroke="black" points="366.91,-134.3 356.91,-137.8 366.91,-141.3 366.91,-134.3"/>
</g>
<!-- AppComponent -->
<g id="node2" class="node">
<title>AppComponent</title>
<polygon fill="#ffffb3" stroke="black" points="503.94,-84.8 398.06,-84.8 398.06,-48.8 503.94,-48.8 503.94,-84.8"/>
<text text-anchor="middle" x="451" y="-62.6" font-family="Times,serif" font-size="14.00">AppComponent</text>
</g>
<!-- AppComponent&#45;&gt;DetailModule -->
<g id="edge2" class="edge">
<title>AppComponent&#45;&gt;DetailModule</title>
<path fill="none" stroke="black" d="M451,-84.82C451,-102.17 451,-125.8 451,-125.8 451,-125.8 366.95,-125.8 366.95,-125.8"/>
<polygon fill="black" stroke="black" points="366.95,-122.3 356.95,-125.8 366.95,-129.3 366.95,-122.3"/>
</g>
<!-- AppRoutingModule -->
<g id="node4" class="node">
<title>AppRoutingModule</title>
<polygon fill="#8dd3c7" stroke="black" points="374.28,-84.8 371.28,-88.8 350.28,-88.8 347.28,-84.8 245.72,-84.8 245.72,-48.8 374.28,-48.8 374.28,-84.8"/>
<text text-anchor="middle" x="310" y="-62.6" font-family="Times,serif" font-size="14.00">AppRoutingModule</text>
</g>
<!-- AppRoutingModule&#45;&gt;DetailModule -->
<g id="edge3" class="edge">
<title>AppRoutingModule&#45;&gt;DetailModule</title>
<path fill="none" stroke="black" d="M310,-84.91C310,-84.91 310,-103.79 310,-103.79"/>
<polygon fill="black" stroke="black" points="306.5,-103.79 310,-113.79 313.5,-103.79 306.5,-103.79"/>
</g>
<!-- CoreModule -->
<g id="node5" class="node">
<title>CoreModule</title>
<polygon fill="#8dd3c7" stroke="black" points="227.27,-84.8 224.27,-88.8 203.27,-88.8 200.27,-84.8 140.73,-84.8 140.73,-48.8 227.27,-48.8 227.27,-84.8"/>
<text text-anchor="middle" x="184" y="-62.6" font-family="Times,serif" font-size="14.00">CoreModule</text>
</g>
<!-- CoreModule&#45;&gt;DetailModule -->
<g id="edge4" class="edge">
<title>CoreModule&#45;&gt;DetailModule</title>
<path fill="none" stroke="black" d="M184,-84.82C184,-102.17 184,-125.8 184,-125.8 184,-125.8 253.08,-125.8 253.08,-125.8"/>
<polygon fill="black" stroke="black" points="253.08,-129.3 263.08,-125.8 253.08,-122.3 253.08,-129.3"/>
</g>
<!-- SharedModule -->
<g id="node6" class="node">
<title>SharedModule</title>
<polygon fill="#8dd3c7" stroke="black" points="122.43,-84.8 119.43,-88.8 98.43,-88.8 95.43,-84.8 23.57,-84.8 23.57,-48.8 122.43,-48.8 122.43,-84.8"/>
<text text-anchor="middle" x="73" y="-62.6" font-family="Times,serif" font-size="14.00">SharedModule</text>
</g>
<!-- SharedModule&#45;&gt;DetailModule -->
<g id="edge5" class="edge">
<title>SharedModule&#45;&gt;DetailModule</title>
<path fill="none" stroke="black" d="M73,-85.08C73,-106.12 73,-137.8 73,-137.8 73,-137.8 253.18,-137.8 253.18,-137.8"/>
<polygon fill="black" stroke="black" points="253.18,-141.3 263.18,-137.8 253.18,-134.3 253.18,-141.3"/>
</g>
</g>
</svg>
