<?xml version="1.0" encoding="UTF-8" standalone="no"?>
<!DOCTYPE svg PUBLIC "-//W3C//DTD SVG 1.1//EN"
 "http://www.w3.org/Graphics/SVG/1.1/DTD/svg11.dtd">
<!-- Generated by graphviz version 5.0.0 (20220707.1540)
 -->
<!-- Title: dependencies Pages: 1 -->
<svg width="714pt" height="247pt"
 viewBox="0.00 0.00 714.00 246.80" xmlns="http://www.w3.org/2000/svg" xmlns:xlink="http://www.w3.org/1999/xlink">
<g id="graph0" class="graph" transform="scale(1 1) rotate(0) translate(4 242.8)">
<title>dependencies</title>
<polygon fill="white" stroke="transparent" points="-4,4 -4,-242.8 710,-242.8 710,4 -4,4"/>
<text text-anchor="middle" x="353" y="-8.2" font-family="sans-serif" font-size="14.00">dependencies</text>
<g id="clust1" class="cluster">
<title>cluster_ProjectsModule</title>
<polygon fill="none" stroke="black" stroke-dasharray="1,5" points="8,-32.8 8,-230.8 698,-230.8 698,-32.8 8,-32.8"/>
</g>
<g id="clust6" class="cluster">
<title>cluster_ProjectsModule_exports</title>
<polygon fill="none" stroke="black" points="199,-170.8 199,-222.8 625,-222.8 625,-170.8 199,-170.8"/>
</g>
<g id="clust5" class="cluster">
<title>cluster_ProjectsModule_imports</title>
<polygon fill="none" stroke="black" points="324,-40.8 324,-92.8 690,-92.8 690,-40.8 324,-40.8"/>
</g>
<g id="clust2" class="cluster">
<title>cluster_ProjectsModule_declarations</title>
<polygon fill="none" stroke="black" points="16,-40.8 16,-92.8 316,-92.8 316,-40.8 16,-40.8"/>
</g>
<!-- AdminLayoutComponent -->
<g id="node1" class="node">
<title>AdminLayoutComponent</title>
<polygon fill="#ffffb3" stroke="black" points="307.88,-84.8 148.12,-84.8 148.12,-48.8 307.88,-48.8 307.88,-84.8"/>
<text text-anchor="middle" x="228" y="-62.6" font-family="Times,serif" font-size="14.00">AdminLayoutComponent</text>
</g>
<!-- ProjectsModule -->
<g id="node3" class="node">
<title>ProjectsModule</title>
<polygon fill="#8dd3c7" stroke="black" points="433.16,-149.8 430.16,-153.8 409.16,-153.8 406.16,-149.8 328.84,-149.8 328.84,-113.8 433.16,-113.8 433.16,-149.8"/>
<text text-anchor="middle" x="381" y="-127.6" font-family="Times,serif" font-size="14.00">ProjectsModule</text>
</g>
<!-- AdminLayoutComponent&#45;&gt;ProjectsModule -->
<g id="edge1" class="edge">
<title>AdminLayoutComponent&#45;&gt;ProjectsModule</title>
<path fill="none" stroke="black" d="M240.67,-84.83C240.67,-101.2 240.67,-122.8 240.67,-122.8 240.67,-122.8 318.75,-122.8 318.75,-122.8"/>
<polygon fill="black" stroke="black" points="318.75,-126.3 328.75,-122.8 318.75,-119.3 318.75,-126.3"/>
</g>
<!-- AppComponent -->
<g id="node2" class="node">
<title>AppComponent</title>
<polygon fill="#ffffb3" stroke="black" points="129.94,-84.8 24.06,-84.8 24.06,-48.8 129.94,-48.8 129.94,-84.8"/>
<text text-anchor="middle" x="77" y="-62.6" font-family="Times,serif" font-size="14.00">AppComponent</text>
</g>
<!-- AppComponent&#45;&gt;ProjectsModule -->
<g id="edge2" class="edge">
<title>AppComponent&#45;&gt;ProjectsModule</title>
<path fill="none" stroke="black" d="M77,-84.91C77,-104.14 77,-131.8 77,-131.8 77,-131.8 318.74,-131.8 318.74,-131.8"/>
<polygon fill="black" stroke="black" points="318.74,-135.3 328.74,-131.8 318.74,-128.3 318.74,-135.3"/>
</g>
<!-- AdminLayoutComponent  -->
<g id="node7" class="node">
<title>AdminLayoutComponent </title>
<polygon fill="#fb8072" stroke="black" points="616.88,-214.8 453.12,-214.8 453.12,-178.8 616.88,-178.8 616.88,-214.8"/>
<text text-anchor="middle" x="535" y="-192.6" font-family="Times,serif" font-size="14.00">AdminLayoutComponent </text>
</g>
<!-- ProjectsModule&#45;&gt;AdminLayoutComponent  -->
<g id="edge6" class="edge">
<title>ProjectsModule&#45;&gt;AdminLayoutComponent </title>
<path fill="none" stroke="black" stroke-dasharray="5,2" d="M433.17,-140.8C457.28,-140.8 480.67,-140.8 480.67,-140.8 480.67,-140.8 480.67,-168.77 480.67,-168.77"/>
<polygon fill="black" stroke="black" points="477.17,-168.77 480.67,-178.77 484.17,-168.77 477.17,-168.77"/>
</g>
<!-- AppComponent  -->
<g id="node8" class="node">
<title>AppComponent </title>
<polygon fill="#fb8072" stroke="black" points="435.44,-214.8 326.56,-214.8 326.56,-178.8 435.44,-178.8 435.44,-214.8"/>
<text text-anchor="middle" x="381" y="-192.6" font-family="Times,serif" font-size="14.00">AppComponent </text>
</g>
<!-- ProjectsModule&#45;&gt;AppComponent  -->
<g id="edge7" class="edge">
<title>ProjectsModule&#45;&gt;AppComponent </title>
<path fill="none" stroke="black" stroke-dasharray="5,2" d="M381,-149.91C381,-149.91 381,-168.79 381,-168.79"/>
<polygon fill="black" stroke="black" points="377.5,-168.79 381,-178.79 384.5,-168.79 377.5,-168.79"/>
</g>
<!-- SharedModule  -->
<g id="node9" class="node">
<title>SharedModule </title>
<polygon fill="#fb8072" stroke="black" points="308.93,-214.8 207.07,-214.8 207.07,-178.8 308.93,-178.8 308.93,-214.8"/>
<text text-anchor="middle" x="258" y="-192.6" font-family="Times,serif" font-size="14.00">SharedModule </text>
</g>
<!-- ProjectsModule&#45;&gt;SharedModule  -->
<g id="edge8" class="edge">
<title>ProjectsModule&#45;&gt;SharedModule </title>
<path fill="none" stroke="black" stroke-dasharray="5,2" d="M328.59,-140.8C301.61,-140.8 274.3,-140.8 274.3,-140.8 274.3,-140.8 274.3,-168.77 274.3,-168.77"/>
<polygon fill="black" stroke="black" points="270.8,-168.77 274.3,-178.77 277.8,-168.77 270.8,-168.77"/>
</g>
<!-- AppRoutingModule -->
<g id="node4" class="node">
<title>AppRoutingModule</title>
<polygon fill="#8dd3c7" stroke="black" points="682.28,-84.8 679.28,-88.8 658.28,-88.8 655.28,-84.8 553.72,-84.8 553.72,-48.8 682.28,-48.8 682.28,-84.8"/>
<text text-anchor="middle" x="618" y="-62.6" font-family="Times,serif" font-size="14.00">AppRoutingModule</text>
</g>
<!-- AppRoutingModule&#45;&gt;ProjectsModule -->
<g id="edge3" class="edge">
<title>AppRoutingModule&#45;&gt;ProjectsModule</title>
<path fill="none" stroke="black" d="M585.15,-84.91C585.15,-104.14 585.15,-131.8 585.15,-131.8 585.15,-131.8 443.31,-131.8 443.31,-131.8"/>
<polygon fill="black" stroke="black" points="443.31,-128.3 433.31,-131.8 443.31,-135.3 443.31,-128.3"/>
</g>
<!-- CoreModule -->
<g id="node5" class="node">
<title>CoreModule</title>
<polygon fill="#8dd3c7" stroke="black" points="535.27,-84.8 532.27,-88.8 511.27,-88.8 508.27,-84.8 448.73,-84.8 448.73,-48.8 535.27,-48.8 535.27,-84.8"/>
<text text-anchor="middle" x="492" y="-62.6" font-family="Times,serif" font-size="14.00">CoreModule</text>
</g>
<!-- CoreModule&#45;&gt;ProjectsModule -->
<g id="edge4" class="edge">
<title>CoreModule&#45;&gt;ProjectsModule</title>
<path fill="none" stroke="black" d="M508.03,-84.83C508.03,-101.2 508.03,-122.8 508.03,-122.8 508.03,-122.8 443.4,-122.8 443.4,-122.8"/>
<polygon fill="black" stroke="black" points="443.4,-119.3 433.4,-122.8 443.4,-126.3 443.4,-119.3"/>
</g>
<!-- SharedModule -->
<g id="node6" class="node">
<title>SharedModule</title>
<polygon fill="#8dd3c7" stroke="black" points="430.43,-84.8 427.43,-88.8 406.43,-88.8 403.43,-84.8 331.57,-84.8 331.57,-48.8 430.43,-48.8 430.43,-84.8"/>
<text text-anchor="middle" x="381" y="-62.6" font-family="Times,serif" font-size="14.00">SharedModule</text>
</g>
<!-- SharedModule&#45;&gt;ProjectsModule -->
<g id="edge5" class="edge">
<title>SharedModule&#45;&gt;ProjectsModule</title>
<path fill="none" stroke="black" d="M381,-84.91C381,-84.91 381,-103.79 381,-103.79"/>
<polygon fill="black" stroke="black" points="377.5,-103.79 381,-113.79 384.5,-103.79 377.5,-103.79"/>
</g>
</g>
</svg>
