<?xml version="1.0" encoding="UTF-8" standalone="no"?>
<!DOCTYPE svg PUBLIC "-//W3C//DTD SVG 1.1//EN"
 "http://www.w3.org/Graphics/SVG/1.1/DTD/svg11.dtd">
<!-- Generated by graphviz version 5.0.0 (20220707.1540)
 -->
<!-- Title: dependencies Pages: 1 -->
<svg width="332pt" height="174pt"
 viewBox="0.00 0.00 332.00 173.80" xmlns="http://www.w3.org/2000/svg" xmlns:xlink="http://www.w3.org/1999/xlink">
<g id="graph0" class="graph" transform="scale(1 1) rotate(0) translate(4 169.8)">
<title>dependencies</title>
<polygon fill="white" stroke="transparent" points="-4,4 -4,-169.8 328,-169.8 328,4 -4,4"/>
<text text-anchor="middle" x="162" y="-8.2" font-family="sans-serif" font-size="14.00">dependencies</text>
<g id="clust1" class="cluster">
<title>cluster_UsersModule</title>
<polygon fill="none" stroke="black" stroke-dasharray="1,5" points="8,-32.8 8,-157.8 316,-157.8 316,-32.8 8,-32.8"/>
</g>
<g id="clust4" class="cluster">
<title>cluster_UsersModule_imports</title>
<polygon fill="none" stroke="black" points="156,-40.8 156,-92.8 308,-92.8 308,-40.8 156,-40.8"/>
</g>
<g id="clust2" class="cluster">
<title>cluster_UsersModule_declarations</title>
<polygon fill="none" stroke="black" points="16,-40.8 16,-92.8 148,-92.8 148,-40.8 16,-40.8"/>
</g>
<!-- DetailComponent -->
<g id="node1" class="node">
<title>DetailComponent</title>
<polygon fill="#ffffb3" stroke="black" points="139.54,-84.8 24.46,-84.8 24.46,-48.8 139.54,-48.8 139.54,-84.8"/>
<text text-anchor="middle" x="82" y="-62.6" font-family="Times,serif" font-size="14.00">DetailComponent</text>
</g>
<!-- UsersModule -->
<g id="node2" class="node">
<title>UsersModule</title>
<polygon fill="#8dd3c7" stroke="black" points="202.94,-149.8 199.94,-153.8 178.94,-153.8 175.94,-149.8 111.06,-149.8 111.06,-113.8 202.94,-113.8 202.94,-149.8"/>
<text text-anchor="middle" x="157" y="-127.6" font-family="Times,serif" font-size="14.00">UsersModule</text>
</g>
<!-- DetailComponent&#45;&gt;UsersModule -->
<g id="edge1" class="edge">
<title>DetailComponent&#45;&gt;UsersModule</title>
<path fill="none" stroke="black" d="M125.53,-84.91C125.53,-84.91 125.53,-103.79 125.53,-103.79"/>
<polygon fill="black" stroke="black" points="122.03,-103.79 125.53,-113.79 129.03,-103.79 122.03,-103.79"/>
</g>
<!-- UsersRoutingModule -->
<g id="node3" class="node">
<title>UsersRoutingModule</title>
<polygon fill="#8dd3c7" stroke="black" points="300.05,-84.8 297.05,-88.8 276.05,-88.8 273.05,-84.8 163.95,-84.8 163.95,-48.8 300.05,-48.8 300.05,-84.8"/>
<text text-anchor="middle" x="232" y="-62.6" font-family="Times,serif" font-size="14.00">UsersRoutingModule</text>
</g>
<!-- UsersRoutingModule&#45;&gt;UsersModule -->
<g id="edge2" class="edge">
<title>UsersRoutingModule&#45;&gt;UsersModule</title>
<path fill="none" stroke="black" d="M183.22,-84.91C183.22,-84.91 183.22,-103.79 183.22,-103.79"/>
<polygon fill="black" stroke="black" points="179.72,-103.79 183.22,-113.79 186.72,-103.79 179.72,-103.79"/>
</g>
</g>
</svg>
