<?xml version="1.0" encoding="UTF-8" standalone="no"?>
<!DOCTYPE svg PUBLIC "-//W3C//DTD SVG 1.1//EN"
 "http://www.w3.org/Graphics/SVG/1.1/DTD/svg11.dtd">
<!-- Generated by graphviz version 5.0.0 (20220707.1540)
 -->
<!-- Title: dependencies Pages: 1 -->
<svg width="473pt" height="182pt"
 viewBox="0.00 0.00 473.00 181.80" xmlns="http://www.w3.org/2000/svg" xmlns:xlink="http://www.w3.org/1999/xlink">
<g id="graph0" class="graph" transform="scale(1 1) rotate(0) translate(4 177.8)">
<title>dependencies</title>
<polygon fill="white" stroke="transparent" points="-4,4 -4,-177.8 469,-177.8 469,4 -4,4"/>
<text text-anchor="middle" x="232.5" y="-8.2" font-family="sans-serif" font-size="14.00">dependencies</text>
<g id="clust1" class="cluster">
<title>cluster_SharedModule</title>
<polygon fill="none" stroke="black" stroke-dasharray="1,5" points="8,-32.8 8,-165.8 457,-165.8 457,-32.8 8,-32.8"/>
</g>
<g id="clust4" class="cluster">
<title>cluster_SharedModule_imports</title>
<polygon fill="none" stroke="black" points="200,-40.8 200,-157.8 449,-157.8 449,-40.8 200,-40.8"/>
</g>
<g id="clust2" class="cluster">
<title>cluster_SharedModule_declarations</title>
<polygon fill="none" stroke="black" points="16,-40.8 16,-92.8 192,-92.8 192,-40.8 16,-40.8"/>
</g>
<!-- CardDatabaseComponent -->
<g id="node1" class="node">
<title>CardDatabaseComponent</title>
<polygon fill="#ffffb3" stroke="black" points="183.85,-84.8 24.15,-84.8 24.15,-48.8 183.85,-48.8 183.85,-84.8"/>
<text text-anchor="middle" x="104" y="-62.6" font-family="Times,serif" font-size="14.00">CardDatabaseComponent</text>
</g>
<!-- SharedModule -->
<g id="node2" class="node">
<title>SharedModule</title>
<polygon fill="#8dd3c7" stroke="black" points="306.43,-149.8 303.43,-153.8 282.43,-153.8 279.43,-149.8 207.57,-149.8 207.57,-113.8 306.43,-113.8 306.43,-149.8"/>
<text text-anchor="middle" x="257" y="-127.6" font-family="Times,serif" font-size="14.00">SharedModule</text>
</g>
<!-- CardDatabaseComponent&#45;&gt;SharedModule -->
<g id="edge1" class="edge">
<title>CardDatabaseComponent&#45;&gt;SharedModule</title>
<path fill="none" stroke="black" d="M104,-84.91C104,-104.14 104,-131.8 104,-131.8 104,-131.8 197.75,-131.8 197.75,-131.8"/>
<polygon fill="black" stroke="black" points="197.75,-135.3 207.75,-131.8 197.75,-128.3 197.75,-135.3"/>
</g>
<!-- SharedModule&#45;&gt;SharedModule -->
<g id="edge4" class="edge">
<title>SharedModule&#45;&gt;SharedModule</title>
<path fill="none" stroke="black" d="M236.65,-113.56C236.65,-106.37 236.65,-99.8 236.65,-99.8 236.65,-99.8 195.77,-99.8 195.77,-99.8 195.77,-99.8 195.77,-167.8 195.77,-167.8 195.77,-167.8 257,-167.8 257,-167.8 257,-167.8 257,-160.22 257,-160.22"/>
<polygon fill="black" stroke="black" points="260.5,-160.22 257,-150.22 253.5,-160.22 260.5,-160.22"/>
</g>
<!-- AppRoutingModule -->
<g id="node3" class="node">
<title>AppRoutingModule</title>
<polygon fill="#8dd3c7" stroke="black" points="441.28,-84.8 438.28,-88.8 417.28,-88.8 414.28,-84.8 312.72,-84.8 312.72,-48.8 441.28,-48.8 441.28,-84.8"/>
<text text-anchor="middle" x="377" y="-62.6" font-family="Times,serif" font-size="14.00">AppRoutingModule</text>
</g>
<!-- AppRoutingModule&#45;&gt;SharedModule -->
<g id="edge2" class="edge">
<title>AppRoutingModule&#45;&gt;SharedModule</title>
<path fill="none" stroke="black" d="M312.62,-66.8C305.24,-66.8 300.3,-66.8 300.3,-66.8 300.3,-66.8 300.3,-103.69 300.3,-103.69"/>
<polygon fill="black" stroke="black" points="296.8,-103.69 300.3,-113.69 303.8,-103.69 296.8,-103.69"/>
</g>
<!-- CoreModule -->
<g id="node4" class="node">
<title>CoreModule</title>
<polygon fill="#8dd3c7" stroke="black" points="294.27,-84.8 291.27,-88.8 270.27,-88.8 267.27,-84.8 207.73,-84.8 207.73,-48.8 294.27,-48.8 294.27,-84.8"/>
<text text-anchor="middle" x="251" y="-62.6" font-family="Times,serif" font-size="14.00">CoreModule</text>
</g>
<!-- CoreModule&#45;&gt;SharedModule -->
<g id="edge3" class="edge">
<title>CoreModule&#45;&gt;SharedModule</title>
<path fill="none" stroke="black" d="M265.52,-84.91C265.52,-84.91 265.52,-103.79 265.52,-103.79"/>
<polygon fill="black" stroke="black" points="262.02,-103.79 265.52,-113.79 269.02,-103.79 262.02,-103.79"/>
</g>
</g>
</svg>
