<?xml version="1.0" encoding="UTF-8" standalone="no"?>
<!DOCTYPE svg PUBLIC "-//W3C//DTD SVG 1.1//EN"
 "http://www.w3.org/Graphics/SVG/1.1/DTD/svg11.dtd">
<!-- Generated by graphviz version 5.0.0 (20220707.1540)
 -->
<!-- Title: dependencies Pages: 1 -->
<svg width="469pt" height="174pt"
 viewBox="0.00 0.00 469.00 173.80" xmlns="http://www.w3.org/2000/svg" xmlns:xlink="http://www.w3.org/1999/xlink">
<g id="graph0" class="graph" transform="scale(1 1) rotate(0) translate(4 169.8)">
<title>dependencies</title>
<polygon fill="white" stroke="transparent" points="-4,4 -4,-169.8 465,-169.8 465,4 -4,4"/>
<text text-anchor="middle" x="230.5" y="-8.2" font-family="sans-serif" font-size="14.00">dependencies</text>
<g id="clust1" class="cluster">
<title>cluster_DatabasesModule</title>
<polygon fill="none" stroke="black" stroke-dasharray="1,5" points="8,-32.8 8,-157.8 453,-157.8 453,-32.8 8,-32.8"/>
</g>
<g id="clust2" class="cluster">
<title>cluster_DatabasesModule_declarations</title>
<polygon fill="none" stroke="black" points="202,-40.8 202,-92.8 445,-92.8 445,-40.8 202,-40.8"/>
</g>
<g id="clust5" class="cluster">
<title>cluster_DatabasesModule_imports</title>
<polygon fill="none" stroke="black" points="16,-40.8 16,-92.8 194,-92.8 194,-40.8 16,-40.8"/>
</g>
<!-- AddComponent -->
<g id="node1" class="node">
<title>AddComponent</title>
<polygon fill="#ffffb3" stroke="black" points="436.94,-84.8 331.06,-84.8 331.06,-48.8 436.94,-48.8 436.94,-84.8"/>
<text text-anchor="middle" x="384" y="-62.6" font-family="Times,serif" font-size="14.00">AddComponent</text>
</g>
<!-- DatabasesModule -->
<g id="node3" class="node">
<title>DatabasesModule</title>
<polygon fill="#8dd3c7" stroke="black" points="320.3,-149.8 317.3,-153.8 296.3,-153.8 293.3,-149.8 203.7,-149.8 203.7,-113.8 320.3,-113.8 320.3,-149.8"/>
<text text-anchor="middle" x="262" y="-127.6" font-family="Times,serif" font-size="14.00">DatabasesModule</text>
</g>
<!-- AddComponent&#45;&gt;DatabasesModule -->
<g id="edge1" class="edge">
<title>AddComponent&#45;&gt;DatabasesModule</title>
<path fill="none" stroke="black" d="M384,-84.91C384,-104.14 384,-131.8 384,-131.8 384,-131.8 330.5,-131.8 330.5,-131.8"/>
<polygon fill="black" stroke="black" points="330.5,-128.3 320.5,-131.8 330.5,-135.3 330.5,-128.3"/>
</g>
<!-- ListComponent -->
<g id="node2" class="node">
<title>ListComponent</title>
<polygon fill="#ffffb3" stroke="black" points="313.61,-84.8 210.39,-84.8 210.39,-48.8 313.61,-48.8 313.61,-84.8"/>
<text text-anchor="middle" x="262" y="-62.6" font-family="Times,serif" font-size="14.00">ListComponent</text>
</g>
<!-- ListComponent&#45;&gt;DatabasesModule -->
<g id="edge2" class="edge">
<title>ListComponent&#45;&gt;DatabasesModule</title>
<path fill="none" stroke="black" d="M262,-84.91C262,-84.91 262,-103.79 262,-103.79"/>
<polygon fill="black" stroke="black" points="258.5,-103.79 262,-113.79 265.5,-103.79 258.5,-103.79"/>
</g>
<!-- DatabasesRoutingModule -->
<g id="node4" class="node">
<title>DatabasesRoutingModule</title>
<polygon fill="#8dd3c7" stroke="black" points="185.92,-84.8 182.92,-88.8 161.92,-88.8 158.92,-84.8 24.08,-84.8 24.08,-48.8 185.92,-48.8 185.92,-84.8"/>
<text text-anchor="middle" x="105" y="-62.6" font-family="Times,serif" font-size="14.00">DatabasesRoutingModule</text>
</g>
<!-- DatabasesRoutingModule&#45;&gt;DatabasesModule -->
<g id="edge3" class="edge">
<title>DatabasesRoutingModule&#45;&gt;DatabasesModule</title>
<path fill="none" stroke="black" d="M105,-84.91C105,-104.14 105,-131.8 105,-131.8 105,-131.8 193.54,-131.8 193.54,-131.8"/>
<polygon fill="black" stroke="black" points="193.54,-135.3 203.54,-131.8 193.54,-128.3 193.54,-135.3"/>
</g>
</g>
</svg>
