<?xml version="1.0" encoding="UTF-8" standalone="no"?>
<!DOCTYPE svg PUBLIC "-//W3C//DTD SVG 1.1//EN"
 "http://www.w3.org/Graphics/SVG/1.1/DTD/svg11.dtd">
<!-- Generated by graphviz version 5.0.0 (20220707.1540)
 -->
<!-- Title: dependencies Pages: 1 -->
<svg width="222pt" height="174pt"
 viewBox="0.00 0.00 222.00 173.80" xmlns="http://www.w3.org/2000/svg" xmlns:xlink="http://www.w3.org/1999/xlink">
<g id="graph0" class="graph" transform="scale(1 1) rotate(0) translate(4 169.8)">
<title>dependencies</title>
<polygon fill="white" stroke="transparent" points="-4,4 -4,-169.8 218,-169.8 218,4 -4,4"/>
<text text-anchor="middle" x="107" y="-8.2" font-family="sans-serif" font-size="14.00">dependencies</text>
<g id="clust1" class="cluster">
<title>cluster_AcademicsModule</title>
<polygon fill="none" stroke="black" stroke-dasharray="1,5" points="8,-32.8 8,-157.8 206,-157.8 206,-32.8 8,-32.8"/>
</g>
<g id="clust3" class="cluster">
<title>cluster_AcademicsModule_imports</title>
<polygon fill="none" stroke="black" points="16,-40.8 16,-92.8 198,-92.8 198,-40.8 16,-40.8"/>
</g>
<!-- AcademicsRoutingModule -->
<g id="node1" class="node">
<title>AcademicsRoutingModule</title>
<polygon fill="#8dd3c7" stroke="black" points="190.36,-84.8 187.36,-88.8 166.36,-88.8 163.36,-84.8 23.64,-84.8 23.64,-48.8 190.36,-48.8 190.36,-84.8"/>
<text text-anchor="middle" x="107" y="-62.6" font-family="Times,serif" font-size="14.00">AcademicsRoutingModule</text>
</g>
<!-- AcademicsModule -->
<g id="node2" class="node">
<title>AcademicsModule</title>
<polygon fill="#8dd3c7" stroke="black" points="167.75,-149.8 164.75,-153.8 143.75,-153.8 140.75,-149.8 46.25,-149.8 46.25,-113.8 167.75,-113.8 167.75,-149.8"/>
<text text-anchor="middle" x="107" y="-127.6" font-family="Times,serif" font-size="14.00">AcademicsModule</text>
</g>
<!-- AcademicsRoutingModule&#45;&gt;AcademicsModule -->
<g id="edge1" class="edge">
<title>AcademicsRoutingModule&#45;&gt;AcademicsModule</title>
<path fill="none" stroke="black" d="M107,-84.91C107,-84.91 107,-103.79 107,-103.79"/>
<polygon fill="black" stroke="black" points="103.5,-103.79 107,-113.79 110.5,-103.79 103.5,-103.79"/>
</g>
</g>
</svg>
