<?xml version="1.0" encoding="UTF-8" standalone="no"?>
<!DOCTYPE svg PUBLIC "-//W3C//DTD SVG 1.1//EN"
 "http://www.w3.org/Graphics/SVG/1.1/DTD/svg11.dtd">
<!-- Generated by graphviz version 5.0.0 (20220707.1540)
 -->
<!-- Title: dependencies Pages: 1 -->
<svg width="301pt" height="182pt"
 viewBox="0.00 0.00 301.00 181.80" xmlns="http://www.w3.org/2000/svg" xmlns:xlink="http://www.w3.org/1999/xlink">
<g id="graph0" class="graph" transform="scale(1 1) rotate(0) translate(4 177.8)">
<title>dependencies</title>
<polygon fill="white" stroke="transparent" points="-4,4 -4,-177.8 297,-177.8 297,4 -4,4"/>
<text text-anchor="middle" x="146.5" y="-8.2" font-family="sans-serif" font-size="14.00">dependencies</text>
<g id="clust1" class="cluster">
<title>cluster_CoreModule</title>
<polygon fill="none" stroke="black" stroke-dasharray="1,5" points="8,-32.8 8,-165.8 285,-165.8 285,-32.8 8,-32.8"/>
</g>
<g id="clust3" class="cluster">
<title>cluster_CoreModule_imports</title>
<polygon fill="none" stroke="black" points="16,-40.8 16,-157.8 277,-157.8 277,-40.8 16,-40.8"/>
</g>
<!-- AppRoutingModule -->
<g id="node1" class="node">
<title>AppRoutingModule</title>
<polygon fill="#8dd3c7" stroke="black" points="269.28,-84.8 266.28,-88.8 245.28,-88.8 242.28,-84.8 140.72,-84.8 140.72,-48.8 269.28,-48.8 269.28,-84.8"/>
<text text-anchor="middle" x="205" y="-62.6" font-family="Times,serif" font-size="14.00">AppRoutingModule</text>
</g>
<!-- CoreModule -->
<g id="node2" class="node">
<title>CoreModule</title>
<polygon fill="#8dd3c7" stroke="black" points="182.27,-149.8 179.27,-153.8 158.27,-153.8 155.27,-149.8 95.73,-149.8 95.73,-113.8 182.27,-113.8 182.27,-149.8"/>
<text text-anchor="middle" x="139" y="-127.6" font-family="Times,serif" font-size="14.00">CoreModule</text>
</g>
<!-- AppRoutingModule&#45;&gt;CoreModule -->
<g id="edge1" class="edge">
<title>AppRoutingModule&#45;&gt;CoreModule</title>
<path fill="none" stroke="black" d="M161.5,-84.91C161.5,-84.91 161.5,-103.79 161.5,-103.79"/>
<polygon fill="black" stroke="black" points="158,-103.79 161.5,-113.79 165,-103.79 158,-103.79"/>
</g>
<!-- CoreModule&#45;&gt;CoreModule -->
<g id="edge2" class="edge">
<title>CoreModule&#45;&gt;CoreModule</title>
<path fill="none" stroke="black" d="M104.48,-113.56C104.48,-106.37 104.48,-99.8 104.48,-99.8 104.48,-99.8 59.7,-99.8 59.7,-99.8 59.7,-99.8 59.7,-167.8 59.7,-167.8 59.7,-167.8 139,-167.8 139,-167.8 139,-167.8 139,-160.22 139,-160.22"/>
<polygon fill="black" stroke="black" points="142.5,-160.22 139,-150.22 135.5,-160.22 142.5,-160.22"/>
</g>
<!-- SharedModule -->
<g id="node3" class="node">
<title>SharedModule</title>
<polygon fill="#8dd3c7" stroke="black" points="122.43,-84.8 119.43,-88.8 98.43,-88.8 95.43,-84.8 23.57,-84.8 23.57,-48.8 122.43,-48.8 122.43,-84.8"/>
<text text-anchor="middle" x="73" y="-62.6" font-family="Times,serif" font-size="14.00">SharedModule</text>
</g>
<!-- SharedModule&#45;&gt;CoreModule -->
<g id="edge3" class="edge">
<title>SharedModule&#45;&gt;CoreModule</title>
<path fill="none" stroke="black" d="M113.35,-84.91C113.35,-84.91 113.35,-103.79 113.35,-103.79"/>
<polygon fill="black" stroke="black" points="109.85,-103.79 113.35,-113.79 116.85,-103.79 109.85,-103.79"/>
</g>
</g>
</svg>
